<svg xmlns="http://www.w3.org/2000/svg" viewBox="0 0 1536 735" preserveAspectRatio="xMidYMid" width="1536" height="735" xmlns:xlink="http://www.w3.org/1999/xlink" style="shape-rendering:auto;display:block;background-position-x:0%;background-position-y:0%;background-size:auto;background-origin:padding-box;background-clip:border-box;background:scroll rgb(255, 255, 255) none  repeat;width:1536px;height:735px;;animation:none"><g><defs><filter id="blur-rj2aarht17-1" x="-1" y="-1" width="3" height="3"><feGaussianBlur stdDeviation="3"></feGaussianBlur></filter>
<filter id="blur-rj2aarht17-2" x="-1" y="-1" width="3" height="3"><feGaussianBlur stdDeviation="1.5"></feGaussianBlur></filter>
<filter id="blur-rj2aarht17-3" x="-1" y="-1" width="3" height="3"><feGaussianBlur stdDeviation="1"></feGaussianBlur></filter></defs>
<circle cx="1147.2315984737083" cy="0" transform="matrix(1,0,0,1,13.93924331665039,336.3360595703125)" r="12" fill="#ff0000" opacity="0.7200000000000001" style="fill:rgb(255, 0, 0);transform:matrix(1, 0, 0, 1, 13.9392, 336.336);opacity:0.72;;animation:none"></circle>
<circle cx="721.5852069637793" cy="0" transform="matrix(1,0,0,1,-32.91144943237305,372.2934265136719)" r="12" fill="#fbb034" opacity="0.7200000000000001" style="fill:rgb(251, 176, 52);transform:matrix(1, 0, 0, 1, -32.9115, 372.293);opacity:0.72;;animation:none"></circle>
<circle cx="1348.725861681167" cy="0" transform="matrix(1,0,0,1,-60.566158294677734,6.982431411743164)" r="4" fill="#ffdd00" opacity="0.36000000000000004" style="fill:rgb(255, 221, 0);transform:matrix(1, 0, 0, 1, -60.5662, 6.98243);opacity:0.36;;animation:none"></circle>
<circle cx="830.0279845546975" cy="0" transform="matrix(1,0,0,1,-6.2684783935546875,311.3567810058594)" r="4" fill="#c1d82f" opacity="0.36000000000000004" style="fill:rgb(193, 216, 47);transform:matrix(1, 0, 0, 1, -6.26848, 311.357);opacity:0.36;;animation:none"></circle>
<circle cx="143.38059588989302" cy="0" transform="matrix(1,0,0,1,-54.413658142089844,186.88803100585938)" r="8" fill="#00a4e4" opacity="0.63" style="fill:rgb(0, 164, 228);transform:matrix(1, 0, 0, 1, -54.4137, 186.888);opacity:0.63;;animation:none"></circle>
<circle cx="294.46661183046905" cy="0" transform="matrix(1,0,0,1,-83.51124572753906,335.6923828125)" r="8" fill="#c275da" opacity="0.63" style="fill:rgb(194, 117, 218);transform:matrix(1, 0, 0, 1, -83.5112, 335.692);opacity:0.63;;animation:none"></circle>
<circle cx="814.5682724513547" cy="0" transform="matrix(1,0,0,1,-6.0291900634765625,298.4185485839844)" r="4" fill="#ff0000" opacity="0.36000000000000004" style="fill:rgb(255, 0, 0);transform:matrix(1, 0, 0, 1, -6.02919, 298.419);opacity:0.36;;animation:none"></circle>
<circle cx="1381.2950426352893" cy="0" transform="matrix(1,0,0,1,-1.0059967041015625,379.7903747558594)" r="4" fill="#fbb034" opacity="0.36000000000000004" style="fill:rgb(251, 176, 52);transform:matrix(1, 0, 0, 1, -1.006, 379.79);opacity:0.36;;animation:none"></circle>
<circle cx="704.4628124866074" cy="0" transform="matrix(1,0,0,1,-84.556640625,723.8655395507812)" r="12" fill="#ffdd00" opacity="0.7200000000000001" style="fill:rgb(255, 221, 0);transform:matrix(1, 0, 0, 1, -84.5566, 723.866);opacity:0.72;;animation:none"></circle>
<circle cx="493.4540648494537" cy="0" transform="matrix(1,0,0,1,-46.48323059082031,-4.870657920837402)" r="8" fill="#c1d82f" opacity="0.63" style="fill:rgb(193, 216, 47);transform:matrix(1, 0, 0, 1, -46.4832, -4.87066);opacity:0.63;;animation:none"></circle>
<circle cx="749.2334346783118" cy="0" transform="matrix(1,0,0,1,-141.67774963378906,616.5352783203125)" r="8" fill="#00a4e4" opacity="0.63" style="fill:rgb(0, 164, 228);transform:matrix(1, 0, 0, 1, -141.678, 616.535);opacity:0.63;;animation:none"></circle>
<circle cx="104.96248079723172" cy="0" transform="matrix(1,0,0,1,124.44243621826172,248.13815307617188)" r="12" fill="#c275da" opacity="0.7200000000000001" style="fill:rgb(194, 117, 218);transform:matrix(1, 0, 0, 1, 124.442, 248.138);opacity:0.72;;animation:none"></circle>
<circle cx="1471.1966915759851" cy="0" transform="matrix(1,0,0,1,89.78824615478516,443.3133239746094)" r="4" fill="#ff0000" opacity="0.36000000000000004" style="fill:rgb(255, 0, 0);transform:matrix(1, 0, 0, 1, 89.7882, 443.313);opacity:0.36;;animation:none"></circle>
<circle cx="812.065638282031" cy="0" transform="matrix(1,0,0,1,65.7104263305664,689.56494140625)" r="12" fill="#fbb034" opacity="0.7200000000000001" style="fill:rgb(251, 176, 52);transform:matrix(1, 0, 0, 1, 65.7104, 689.565);opacity:0.72;;animation:none"></circle>
<circle cx="1163.8212207940933" cy="0" transform="matrix(1,0,0,1,-69.99589538574219,374.44451904296875)" r="4" fill="#ffdd00" opacity="0.36000000000000004" style="fill:rgb(255, 221, 0);transform:matrix(1, 0, 0, 1, -69.9959, 374.445);opacity:0.36;;animation:none"></circle>
<circle cx="463.79639443325885" cy="0" transform="matrix(1,0,0,1,65.98689270019531,160.0944366455078)" r="12" fill="#c1d82f" opacity="0.7200000000000001" style="fill:rgb(193, 216, 47);transform:matrix(1, 0, 0, 1, 65.9869, 160.094);opacity:0.72;;animation:none"></circle>
<circle cx="264.7281050985606" cy="0" transform="matrix(1,0,0,1,7.185516357421875,635.7168579101562)" r="8" fill="#00a4e4" opacity="0.63" style="fill:rgb(0, 164, 228);transform:matrix(1, 0, 0, 1, 7.18552, 635.717);opacity:0.63;;animation:none"></circle>
<circle cx="1043.6474869131553" cy="0" transform="matrix(1,0,0,1,-2.93548583984375,408.0381774902344)" r="8" fill="#c275da" opacity="0.63" style="fill:rgb(194, 117, 218);transform:matrix(1, 0, 0, 1, -2.93549, 408.038);opacity:0.63;;animation:none"></circle>
<circle cx="1217.9465494283768" cy="0" transform="matrix(1,0,0,1,91.63591003417969,584.3230590820312)" r="4" fill="#ff0000" opacity="0.36000000000000004" style="fill:rgb(255, 0, 0);transform:matrix(1, 0, 0, 1, 91.6359, 584.323);opacity:0.36;;animation:none"></circle>
<circle cx="454.4189978923512" cy="0" transform="matrix(1,0,0,1,-27.777835845947266,294.5550842285156)" r="4" fill="#fbb034" opacity="0.36000000000000004" style="fill:rgb(251, 176, 52);transform:matrix(1, 0, 0, 1, -27.7778, 294.555);opacity:0.36;;animation:none"></circle>
<circle cx="721.6952892230809" cy="0" transform="matrix(1,0,0,1,87.27531433105469,118.61454772949219)" r="12" fill="#ffdd00" opacity="0.7200000000000001" style="fill:rgb(255, 221, 0);transform:matrix(1, 0, 0, 1, 87.2753, 118.615);opacity:0.72;;animation:none"></circle>
<circle cx="456.05128879364776" cy="0" transform="matrix(1,0,0,1,11.063575744628906,420.10137939453125)" r="8" fill="#c1d82f" opacity="0.63" style="fill:rgb(193, 216, 47);transform:matrix(1, 0, 0, 1, 11.0636, 420.101);opacity:0.63;;animation:none"></circle>
<circle cx="1452.31329250902" cy="0" transform="matrix(1,0,0,1,-18.018632888793945,14.716802597045898)" r="4" fill="#00a4e4" opacity="0.36000000000000004" style="fill:rgb(0, 164, 228);transform:matrix(1, 0, 0, 1, -18.0186, 14.7168);opacity:0.36;;animation:none"></circle>
<circle cx="1348.8812873753152" cy="0" transform="matrix(1,0,0,1,38.16086196899414,31.161907196044922)" r="12" fill="#c275da" opacity="0.7200000000000001" style="fill:rgb(194, 117, 218);transform:matrix(1, 0, 0, 1, 38.1609, 31.1619);opacity:0.72;;animation:none"></circle>
<circle cx="1286.2732564789683" cy="0" transform="matrix(1,0,0,1,-132.9551239013672,113.95317840576172)" r="12" fill="#ff0000" opacity="0.7200000000000001" style="fill:rgb(255, 0, 0);transform:matrix(1, 0, 0, 1, -132.955, 113.953);opacity:0.72;;animation:none"></circle>
<circle cx="1012.5906348926394" cy="0" transform="matrix(1,0,0,1,-73.64196014404297,43.49742126464844)" r="8" fill="#fbb034" opacity="0.63" style="fill:rgb(251, 176, 52);transform:matrix(1, 0, 0, 1, -73.642, 43.4974);opacity:0.63;;animation:none"></circle>
<circle cx="758.4970777012124" cy="0" transform="matrix(1,0,0,1,-18.156394958496094,566.0098266601562)" r="4" fill="#ffdd00" opacity="0.36000000000000004" style="fill:rgb(255, 221, 0);transform:matrix(1, 0, 0, 1, -18.1564, 566.01);opacity:0.36;;animation:none"></circle>
<circle cx="1251.280548618538" cy="0" transform="matrix(1,0,0,1,28.178184509277344,377.7271423339844)" r="4" fill="#c1d82f" opacity="0.36000000000000004" style="fill:rgb(193, 216, 47);transform:matrix(1, 0, 0, 1, 28.1782, 377.727);opacity:0.36;;animation:none"></circle>
<circle cx="1081.6236406013645" cy="0" transform="matrix(1,0,0,1,73.36511993408203,706.3286743164062)" r="8" fill="#00a4e4" opacity="0.63" style="fill:rgb(0, 164, 228);transform:matrix(1, 0, 0, 1, 73.3651, 706.329);opacity:0.63;;animation:none"></circle>
<circle cx="197.70951456465028" cy="0" transform="matrix(1,0,0,1,124.62323760986328,417.556884765625)" r="12" fill="#c275da" opacity="0.7200000000000001" style="fill:rgb(194, 117, 218);transform:matrix(1, 0, 0, 1, 124.623, 417.557);opacity:0.72;;animation:none"></circle>
<g></g></g><!-- [ldio] generated by https://loading.io --></svg>